<svg id="bold" enable-background="new 0 0 24 24" height="512" viewBox="0 0 24 24" width="512" xmlns="http://www.w3.org/2000/svg"><path d="m12.97 14.832c.585.585 1.536.585 2.121 0s.585-1.536 0-2.121z"/><path d="m10.495 8.822-.707.707.707.707.707-.707c.195-.195.195-.512 0-.707s-.512-.196-.707 0z"/><path d="m23.201 11.938-10.925-11.151c-.506-.517-1.211-.812-1.935-.812-.001 0-.003 0-.005 0l-8.616.021c-.949.002-1.722.775-1.724 1.724l-.021 8.617c-.001.725.295 1.432.812 1.939l11.151 10.925c.524.514 1.209.77 1.894.77.694 0 1.388-.263 1.914-.789l7.436-7.436c1.045-1.045 1.053-2.753.019-3.808zm-18.201-4.938c-1.103 0-2-.897-2-2s.897-2 2-2 2 .897 2 2-.897 2-2 2zm4.965 5.887c-.293.293-.768.293-1.061 0s-.293-.768 0-1.061l.53-.53-.707-.707-.53.53c-.293.293-.768.293-1.061 0s-.293-.768 0-1.061l2.298-2.298c.78-.78 2.048-.78 2.828 0s.78 2.048 0 2.828zm6.187 3.006c-1.17 1.17-3.073 1.17-4.243 0l-.53-.53c-.293-.293-.293-.768 0-1.061l3.182-3.182c.293-.293.768-.293 1.061 0l.53.53c1.17 1.17 1.17 3.073 0 4.243z"/></svg>